<svg width="428" height="926" viewBox="0 0 428 926" fill="none" xmlns="http://www.w3.org/2000/svg">
<g clip-path="url(#clip0_448_2)">
<rect width="428" height="926" fill="url(#paint0_radial_448_2)"/>
<path d="M100.207 285.269C93.5587 277.671 84.061 272.922 72.6637 273.872C71.714 271.972 67.9149 252.977 67.9149 252.977C67.9149 252.977 81.2117 233.032 84.061 229.233C98.3075 206.438 99.2573 188.393 90.7094 170.347C87.86 163.699 80.2619 158 72.6637 158C66.9651 158 62.2163 162.749 59.3669 168.447C49.8692 184.594 49.8692 214.986 54.6181 235.881C54.6181 235.881 49.8692 240.63 45.1204 246.329C35.6227 256.776 25.1752 268.173 21.3761 283.37C16.6273 300.465 20.4264 316.612 30.8738 328.959C42.2711 343.205 59.3669 349.854 80.2619 347.954C84.061 366 86.9103 377.397 81.2117 387.844C79.3121 391.643 75.513 395.442 68.8646 395.442C66.9651 395.442 66.0153 395.442 64.1158 394.493C69.8144 391.643 74.5633 385.945 74.5633 379.296C74.5633 369.799 66.9651 362.201 57.4674 362.201C41.3213 363.15 40.3715 379.296 40.3715 379.296C40.3715 384.995 42.2711 390.694 46.0702 394.493C50.819 399.242 58.4172 403.041 66.9651 403.041C77.4126 403.041 87.86 399.242 91.6591 384.045C95.4582 371.698 88.8098 351.753 87.86 345.105C98.3075 340.356 107.805 326.109 108.755 316.612C110.655 306.164 106.855 293.817 100.207 285.269ZM69.8144 179.845C70.7642 177.945 72.6637 176.995 74.5633 176.995C75.513 176.995 77.4126 177.945 78.3623 178.895C82.1614 180.794 83.1112 184.594 83.1112 190.292C82.1614 204.539 69.8144 221.635 63.166 227.333C60.3167 214.036 62.2163 189.342 69.8144 179.845ZM42.2711 328.959C35.6227 322.31 32.7734 312.812 33.7232 303.315C35.6227 288.118 46.0702 275.771 54.6181 266.274C56.5176 264.374 58.4172 262.475 59.3669 260.575C60.3167 265.324 63.166 272.922 64.1158 276.721C52.7186 281.47 46.0702 296.666 47.0199 309.013C47.0199 314.712 48.9195 318.511 51.7688 322.31C52.7186 323.26 53.6683 324.21 54.6181 324.21C55.5679 324.21 57.4674 323.26 57.4674 322.31C58.4172 321.36 58.4172 319.461 57.4674 318.511C56.5176 317.561 56.5176 316.612 56.5176 314.712C55.5679 306.164 61.2665 299.516 67.9149 296.666C68.8646 302.365 75.513 331.808 76.4628 338.456C64.1158 342.255 50.819 338.456 42.2711 328.959ZM85.0107 334.657C83.1112 328.009 82.1614 320.411 80.2619 311.863C79.3121 306.164 78.3623 299.516 76.4628 293.817C88.8098 293.817 92.6089 304.265 93.5587 308.064C96.408 318.511 93.5587 328.959 85.0107 334.657Z" fill="#030104"/>
<rect y="198.739" width="1592.57" height="2.16952" fill="#010000"/>
<rect y="235.621" width="1592.57" height="2.16952" fill="#010000"/>
<rect y="272.503" width="1592.57" height="2.16952" fill="#010000"/>
<rect y="309.385" width="1592.57" height="2.16952" fill="#010000"/>
<rect y="346.266" width="1592.57" height="2.16952" fill="#010000"/>
<line x1="190.5" y1="165" x2="190.5" y2="381" stroke="url(#paint1_linear_448_2)" stroke-dasharray="2 2"/>
<path d="M190.5 187L183.139 175L197.861 175L190.5 187Z" fill="#DF7E2D"/>
<path d="M174.854 321.969C167.138 314.942 171.409 303.782 184.085 297.169C188.356 295.102 191.525 294.138 197.036 294.276C200.48 294.413 204.338 296.342 204.338 296.342C204.338 271.404 204.2 224.284 204.2 201.138C205.578 201.138 206.543 201 208.471 201C208.471 202.378 208.471 203.48 208.471 204.582C208.471 205.822 208.471 206.511 208.609 207.338C209.987 216.018 211.916 219.462 221.56 230.071C233.823 243.711 237.405 251.84 237.405 262.724C237.267 272.92 228.311 294.689 226.383 293.862C229.138 286.147 232.996 277.88 233.96 270.991C235.2 262.587 231.756 250.738 226.245 244.538C221.836 239.302 211.365 234.756 208.471 234.756C208.471 234.756 208.334 284.907 208.334 303.92C208.334 307.089 205.44 312.738 203.787 314.667C196.209 323.76 181.467 327.893 174.854 321.969Z" fill="#FF0000"/>
<path d="M322.854 342.969C315.138 335.942 319.409 324.782 332.085 318.169C336.356 316.102 339.525 315.138 345.036 315.276C348.48 315.413 352.338 317.342 352.338 317.342C352.338 292.404 352.2 245.284 352.2 222.138C353.578 222.138 354.543 222 356.471 222C356.471 223.378 356.471 224.48 356.471 225.582C356.471 226.822 356.471 227.511 356.609 228.338C357.987 237.018 359.916 240.462 369.56 251.071C381.823 264.711 385.405 272.84 385.405 283.724C385.267 293.92 376.311 315.689 374.383 314.862C377.138 307.147 380.996 298.88 381.96 291.991C383.2 283.587 379.756 271.738 374.245 265.538C369.836 260.302 359.365 255.756 356.471 255.756C356.471 255.756 356.334 305.907 356.334 324.92C356.334 328.089 353.44 333.738 351.787 335.667C344.209 344.76 329.467 348.893 322.854 342.969Z" fill="black"/>
<g filter="url(#filter0_d_448_2)">
<path d="M60.3704 631.469C60.3704 624.289 66.1907 618.469 73.3704 618.469L133.95 618.469C141.13 618.469 146.95 624.289 146.95 631.469L146.95 692.048C146.95 699.228 141.13 705.048 133.95 705.048L73.3704 705.048C66.1907 705.048 60.3704 699.228 60.3704 692.048L60.3704 631.469Z" fill="url(#paint2_linear_448_2)"/>
</g>
<path d="M65.6865 636.785C65.6865 629.605 71.5068 623.785 78.6865 623.785L128.633 623.785C135.813 623.785 141.633 629.605 141.633 636.785L141.633 686.732C141.633 693.912 135.813 699.732 128.633 699.732L78.6865 699.732C71.5068 699.732 65.6865 693.912 65.6865 686.732L65.6865 636.785Z" fill="white"/>
<path d="M106.704 650.622C109.265 650.622 111.418 651.009 113.162 651.781L113.162 658.04L111.639 658.04L110.115 653.139C109.254 652.94 108.261 652.841 107.135 652.841C101.638 652.841 98.8891 656.131 98.8891 662.71C98.8891 669.288 101.417 672.578 106.473 672.578C107.223 672.578 107.897 672.556 108.493 672.512C109.089 672.468 109.63 672.401 110.115 672.313L112.036 667.081L113.559 667.081L113.328 673.34C113.018 673.516 112.577 673.693 112.003 673.869C111.429 674.046 110.8 674.201 110.115 674.333C109.453 674.466 108.758 674.576 108.029 674.664C107.323 674.753 106.671 674.797 106.075 674.797C102.344 674.797 99.5183 673.759 97.5976 671.684C95.6769 669.609 94.7166 666.617 94.7166 662.71C94.7166 658.802 95.71 655.81 97.697 653.735C99.706 651.66 102.708 650.622 106.704 650.622Z" fill="black"/>
<g filter="url(#filter1_d_448_2)">
<path d="M159.43 631.469C159.43 624.289 165.25 618.469 172.43 618.469L233.009 618.469C240.189 618.469 246.009 624.289 246.009 631.469L246.009 692.048C246.009 699.228 240.189 705.048 233.009 705.048L172.43 705.048C165.25 705.048 159.43 699.228 159.43 692.048L159.43 631.469Z" fill="url(#paint3_linear_448_2)"/>
</g>
<path d="M164.746 636.785C164.746 629.605 170.566 623.785 177.746 623.785L227.693 623.785C234.873 623.785 240.693 629.605 240.693 636.785L240.693 686.732C240.693 693.912 234.873 699.732 227.693 699.732L177.746 699.732C170.566 699.732 164.746 693.912 164.746 686.732L164.746 636.785Z" fill="white"/>
<path d="M192.785 673.937L192.785 672.414L195.831 671.685L195.831 653.008L192.785 652.28L192.785 650.756L201.395 650.756C205.457 650.756 208.647 651.728 210.965 653.671C213.305 655.613 214.475 658.505 214.475 662.347C214.475 665.813 213.272 668.617 210.866 670.758C208.459 672.878 205.302 673.937 201.395 673.937L192.785 673.937ZM199.905 671.719L201.229 671.719C204.165 671.719 206.406 670.979 207.952 669.5C209.519 668.021 210.303 665.636 210.303 662.347C210.303 659.3 209.497 656.982 207.885 655.393C206.296 653.781 204.077 652.975 201.229 652.975L199.905 652.975L199.905 671.719Z" fill="black"/>
<g filter="url(#filter2_d_448_2)">
<path d="M22 802.842C22 795.662 27.8203 789.842 35 789.842L95.5796 789.842C102.759 789.842 108.58 795.662 108.58 802.842L108.58 863.422C108.58 870.601 102.759 876.422 95.5796 876.422L35 876.422C27.8203 876.422 22 870.601 22 863.422L22 802.842Z" fill="url(#paint4_linear_448_2)"/>
</g>
<path d="M27.3162 808.158C27.3162 800.979 33.1365 795.158 40.3162 795.158L90.2631 795.158C97.4428 795.158 103.263 800.979 103.263 808.158L103.263 858.105C103.263 865.285 97.4428 871.105 90.2631 871.105L40.3162 871.105C33.1365 871.105 27.3162 865.285 27.3162 858.105L27.3162 808.158Z" fill="white"/>
<path d="M57.1548 845.311L57.1548 843.787L60.2014 843.059L60.2014 824.382L57.1548 823.653L57.1548 822.13L74.2424 822.13L74.2424 828.918L72.7191 828.918L71.3283 824.349L64.2746 824.084L64.2746 832.561L71.4276 831.965L71.4276 834.912L64.2746 834.349L64.2746 843.059L67.9836 843.787L67.9836 845.311L57.1548 845.311Z" fill="black"/>
<g filter="url(#filter3_d_448_2)">
<path d="M258.777 631.469C258.777 624.289 264.597 618.469 271.777 618.469L332.356 618.469C339.536 618.469 345.356 624.289 345.356 631.469L345.356 692.048C345.356 699.228 339.536 705.048 332.356 705.048L271.777 705.048C264.597 705.048 258.777 699.228 258.777 692.048L258.777 631.469Z" fill="url(#paint5_linear_448_2)"/>
</g>
<path d="M264.093 636.785C264.093 629.605 269.913 623.785 277.093 623.785L327.04 623.785C334.219 623.785 340.04 629.605 340.04 636.785L340.04 686.732C340.04 693.912 334.219 699.732 327.04 699.732L277.093 699.732C269.913 699.732 264.093 693.912 264.093 686.732L264.093 636.785Z" fill="white"/>
<path d="M292.131 674.3L292.131 672.777L295.178 672.048L295.178 653.371L292.131 652.642L292.131 651.119L309.385 651.119L309.385 657.908L307.828 657.908L306.404 653.338L299.251 653.073L299.251 661.584L306.404 660.954L306.404 663.902L299.251 663.306L299.251 672.346L307.033 672.081L308.722 667.147L310.279 667.147L310.014 674.3L292.131 674.3Z" fill="black"/>
<g filter="url(#filter4_d_448_2)">
<path d="M121.347 802.842C121.347 795.662 127.167 789.842 134.347 789.842L194.926 789.842C202.106 789.842 207.926 795.662 207.926 802.842L207.926 863.422C207.926 870.601 202.106 876.422 194.926 876.422L134.347 876.422C127.167 876.422 121.347 870.601 121.347 863.422L121.347 802.842Z" fill="url(#paint6_linear_448_2)"/>
</g>
<path d="M126.663 808.158C126.663 800.979 132.483 795.158 139.663 795.158L189.61 795.158C196.79 795.158 202.61 800.979 202.61 808.158L202.61 858.105C202.61 865.285 196.79 871.105 189.61 871.105L139.663 871.105C132.483 871.105 126.663 865.285 126.663 858.105L126.663 808.158Z" fill="white"/>
<path d="M152.755 833.72C152.755 829.879 153.826 826.909 155.967 824.812C158.131 822.693 161.233 821.633 165.273 821.633C167.834 821.633 169.975 822.008 171.697 822.759L171.697 829.051L170.174 829.051L168.618 824.117C167.514 823.94 166.586 823.852 165.836 823.852C163.01 823.852 160.813 824.691 159.246 826.369C157.7 828.046 156.928 830.497 156.928 833.72C156.928 836.966 157.634 839.427 159.047 841.105C160.46 842.761 162.502 843.589 165.173 843.589C166.145 843.589 167.017 843.511 167.79 843.357L167.79 836.436L164.014 835.74L164.014 834.581L174.313 834.581L174.313 835.74L171.863 836.436L171.863 844.185C169.832 845.267 167.458 845.807 164.743 845.807C160.857 845.807 157.888 844.759 155.835 842.661C153.782 840.564 152.755 837.584 152.755 833.72Z" fill="black"/>
<g filter="url(#filter5_d_448_2)">
<path d="M220.694 802.842C220.694 795.662 226.514 789.842 233.694 789.842L294.273 789.842C301.453 789.842 307.273 795.662 307.273 802.842L307.273 863.422C307.273 870.601 301.453 876.422 294.273 876.422L233.694 876.422C226.514 876.422 220.694 870.601 220.694 863.422L220.694 802.842Z" fill="url(#paint7_linear_448_2)"/>
</g>
<path d="M226.01 808.158C226.01 800.979 231.83 795.158 239.01 795.158L288.957 795.158C296.137 795.158 301.957 800.979 301.957 808.158L301.957 858.105C301.957 865.285 296.137 871.105 288.957 871.105L239.01 871.105C231.83 871.105 226.01 865.285 226.01 858.105L226.01 808.158Z" fill="white"/>
<path d="M250.228 845.311L250.228 843.787L253.34 843.059L261.388 821.964L263.772 821.964L271.322 843.092L274.369 843.787L274.369 845.311L264.633 845.311L264.633 843.787L267.083 843.224L265.494 838.754L257.381 838.754L255.659 843.125L258.573 843.787L258.573 845.311L250.228 845.311ZM258.109 836.8L264.765 836.8L261.52 827.759L258.109 836.8Z" fill="black"/>
<g filter="url(#filter6_d_448_2)">
<path d="M320.328 802.842C320.328 795.662 326.148 789.842 333.328 789.842L393.908 789.842C401.087 789.842 406.908 795.662 406.908 802.842L406.908 863.422C406.908 870.601 401.087 876.422 393.908 876.422L333.328 876.422C326.148 876.422 320.328 870.601 320.328 863.422L320.328 802.842Z" fill="url(#paint8_linear_448_2)"/>
</g>
<path d="M325.644 808.158C325.644 800.979 331.465 795.158 338.644 795.158L388.591 795.158C395.771 795.158 401.591 800.979 401.591 808.158L401.591 858.105C401.591 865.285 395.771 871.105 388.591 871.105L338.644 871.105C331.465 871.105 325.644 865.285 325.644 858.105L325.644 808.158Z" fill="white"/>
<path d="M352.281 845.311L352.281 843.787L355.327 843.059L355.327 824.382L352.281 823.653L352.281 822.13L361.785 822.13C367.172 822.13 369.865 824.006 369.865 827.759C369.865 828.974 369.501 830.033 368.772 830.939C368.066 831.844 367.094 832.495 365.858 832.892L365.858 832.959C367.668 833.29 369.059 833.963 370.03 834.979C371.024 835.994 371.521 837.264 371.521 838.787C371.521 840.774 370.781 842.363 369.302 843.556C367.823 844.726 365.825 845.311 363.308 845.311L352.281 845.311ZM359.4 843.291L362.281 843.291C363.893 843.291 365.14 842.904 366.024 842.132C366.907 841.359 367.348 840.244 367.348 838.787C367.348 837.44 366.885 836.358 365.957 835.542C365.052 834.725 363.772 834.316 362.116 834.316L359.4 834.316L359.4 843.291ZM359.4 832.23L361.288 832.23C362.568 832.23 363.617 831.866 364.434 831.137C365.273 830.387 365.692 829.36 365.692 828.057C365.692 826.733 365.273 825.75 364.434 825.11C363.617 824.47 362.502 824.15 361.089 824.15L359.4 824.15L359.4 832.23Z" fill="black"/>
<g filter="url(#filter7_d_448_2)">
<path d="M103.421 576C103.421 568.82 109.241 563 116.421 563L184.8 563C191.98 563 197.8 568.82 197.8 576L197.8 597.19C197.8 604.37 191.98 610.19 184.8 610.19L116.421 610.19C109.241 610.19 103.421 604.37 103.421 597.19L103.421 576Z" fill="url(#paint9_linear_448_2)"/>
</g>
<path d="M109.216 578.898C109.216 571.718 115.036 565.898 122.216 565.898L179.005 565.898C186.185 565.898 192.005 571.718 192.005 578.898L192.005 594.292C192.005 601.472 186.185 607.292 179.005 607.292L122.216 607.292C115.036 607.292 109.216 601.472 109.216 594.292L109.216 578.898Z" fill="#030101"/>
<path d="M143.412 574.922C145.973 574.922 148.126 575.308 149.87 576.081V582.34H148.346L146.823 577.439C145.962 577.24 144.969 577.141 143.843 577.141C138.345 577.141 135.597 580.43 135.597 587.009C135.597 593.588 138.125 596.877 143.18 596.877C143.931 596.877 144.604 596.855 145.2 596.811C145.796 596.767 146.337 596.701 146.823 596.612L148.744 591.38H150.267L150.035 597.639C149.726 597.816 149.285 597.992 148.711 598.169C148.137 598.346 147.507 598.5 146.823 598.633C146.161 598.765 145.465 598.875 144.737 598.964C144.03 599.052 143.379 599.096 142.783 599.096C139.052 599.096 136.226 598.059 134.305 595.983C132.385 593.908 131.424 590.917 131.424 587.009C131.424 583.101 132.418 580.11 134.405 578.035C136.414 575.959 139.416 574.922 143.412 574.922Z" fill="white"/>
<path d="M153.476 591.943V589.824H156.556L157.748 583.499H154.337V581.379H158.178L159.371 574.922H161.556L160.331 581.379H164.768L165.994 574.922H168.179L166.921 581.379H170.001V583.499H166.557L165.331 589.824H169.107V591.943H164.934L163.709 598.599H161.556L162.781 591.943H158.344L157.086 598.599H154.933L156.191 591.943H153.476ZM158.708 589.824H163.179L164.404 583.499H159.9L158.708 589.824Z" fill="white"/>
<g filter="url(#filter8_d_448_2)">
<path d="M46.2964 747.373C46.2964 740.194 52.1167 734.373 59.2964 734.373L127.676 734.373C134.856 734.373 140.676 740.194 140.676 747.373L140.676 768.563C140.676 775.743 134.856 781.563 127.676 781.563L59.2964 781.563C52.1167 781.563 46.2964 775.743 46.2964 768.563L46.2964 747.373Z" fill="url(#paint10_linear_448_2)"/>
</g>
<path d="M52.0918 750.271C52.0918 743.091 57.9121 737.271 65.0918 737.271L121.881 737.271C129.061 737.271 134.881 743.091 134.881 750.271L134.881 765.666C134.881 772.845 129.061 778.666 121.881 778.666L65.0918 778.666C57.9121 778.666 52.0918 772.845 52.0918 765.666L52.0918 750.271Z" fill="#030101"/>
<path d="M75.4102 769.973V768.449L78.4568 767.721V749.044L75.4102 748.315V746.792H92.4978V753.58H90.9745L89.5836 749.01L82.53 748.746V757.223L89.683 756.627V759.574L82.53 759.011V767.721L86.239 768.449V769.973H75.4102Z" fill="white"/>
<path d="M95.0094 763.316V761.197H98.0892L99.2813 754.872H95.8704V752.753H99.7118L100.904 746.295H103.09L101.864 752.753H106.302L107.527 746.295H109.713L108.454 752.753H111.534V754.872H108.09L106.865 761.197H110.64V763.316H106.467L105.242 769.973H103.09L104.315 763.316H99.8774L98.619 769.973H96.4665L97.7249 763.316H95.0094ZM100.242 761.197H104.712L105.938 754.872H101.434L100.242 761.197Z" fill="white"/>
<g filter="url(#filter9_d_448_2)">
<path d="M214.358 576C214.358 568.82 220.178 563 227.358 563L295.737 563C302.917 563 308.737 568.82 308.737 576L308.737 597.19C308.737 604.37 302.917 610.19 295.737 610.19L227.358 610.19C220.178 610.19 214.358 604.37 214.358 597.19L214.358 576Z" fill="url(#paint11_linear_448_2)"/>
</g>
<path d="M220.153 578.898C220.153 571.718 225.974 565.898 233.153 565.898L289.942 565.898C297.122 565.898 302.942 571.718 302.942 578.898L302.942 594.292C302.942 601.472 297.122 607.292 289.942 607.292L233.153 607.292C225.974 607.292 220.153 601.472 220.153 594.292L220.153 578.898Z" fill="#030101"/>
<path d="M240.836 598.599V597.076L243.883 596.348V577.67L240.836 576.942V575.418H249.446C253.508 575.418 256.699 576.39 259.017 578.333C261.357 580.275 262.527 583.168 262.527 587.009C262.527 590.475 261.324 593.279 258.917 595.42C256.511 597.54 253.354 598.599 249.446 598.599H240.836ZM247.956 596.381H249.281C252.217 596.381 254.458 595.641 256.003 594.162C257.571 592.683 258.354 590.298 258.354 587.009C258.354 583.962 257.549 581.644 255.937 580.055C254.347 578.443 252.129 577.637 249.281 577.637H247.956V596.381Z" fill="white"/>
<path d="M265.707 591.943V589.824H268.787L269.979 583.499H266.568V581.379H270.409L271.601 574.922H273.787L272.562 581.379H276.999L278.224 574.922H280.41L279.152 581.379H282.231V583.499H278.787L277.562 589.824H281.337V591.943H277.165L275.94 598.599H273.787L275.012 591.943H270.575L269.316 598.599H267.164L268.422 591.943H265.707ZM270.939 589.824H275.41L276.635 583.499H272.131L270.939 589.824Z" fill="white"/>
<g filter="url(#filter10_d_448_2)">
<path d="M157.234 747.373C157.234 740.194 163.054 734.373 170.234 734.373L238.613 734.373C245.793 734.373 251.613 740.194 251.613 747.373L251.613 768.563C251.613 775.743 245.793 781.563 238.613 781.563L170.234 781.563C163.054 781.563 157.234 775.743 157.234 768.563L157.234 747.373Z" fill="url(#paint12_linear_448_2)"/>
</g>
<path d="M163.029 750.271C163.029 743.091 168.849 737.271 176.029 737.271L232.818 737.271C239.998 737.271 245.818 743.091 245.818 750.271L245.818 765.666C245.818 772.845 239.998 778.666 232.818 778.666L176.029 778.666C168.849 778.666 163.029 772.845 163.029 765.666L163.029 750.271Z" fill="#030101"/>
<path d="M184.332 758.382C184.332 754.541 185.403 751.571 187.544 749.474C189.708 747.355 192.809 746.295 196.849 746.295C199.41 746.295 201.552 746.67 203.274 747.421V753.713H201.751L200.194 748.779C199.09 748.602 198.163 748.514 197.412 748.514C194.587 748.514 192.39 749.353 190.822 751.031C189.277 752.708 188.504 755.159 188.504 758.382C188.504 761.628 189.211 764.089 190.624 765.767C192.037 767.423 194.079 768.251 196.75 768.251C197.722 768.251 198.594 768.173 199.366 768.019V761.098L195.591 760.402V759.243H205.89V760.402L203.44 761.098V768.847C201.408 769.928 199.035 770.469 196.32 770.469C192.434 770.469 189.465 769.421 187.412 767.323C185.358 765.226 184.332 762.246 184.332 758.382Z" fill="white"/>
<path d="M208.194 763.316V761.197H211.274L212.466 754.872H209.055V752.753H212.897L214.089 746.295H216.275L215.049 752.753H219.487L220.712 746.295H222.898L221.639 752.753H224.719V754.872H221.275L220.05 761.197H223.825V763.316H219.652L218.427 769.973H216.275L217.5 763.316H213.062L211.804 769.973H209.652L210.91 763.316H208.194ZM213.427 761.197H217.897L219.123 754.872H214.619L213.427 761.197Z" fill="white"/>
<g filter="url(#filter11_d_448_2)">
<path d="M267.343 747.373C267.343 740.194 273.163 734.373 280.343 734.373L348.723 734.373C355.902 734.373 361.723 740.194 361.723 747.373L361.723 768.563C361.723 775.743 355.902 781.563 348.723 781.563L280.343 781.563C273.163 781.563 267.343 775.743 267.343 768.563L267.343 747.373Z" fill="url(#paint13_linear_448_2)"/>
</g>
<path d="M273.138 750.271C273.138 743.091 278.959 737.271 286.138 737.271L342.927 737.271C350.107 737.271 355.927 743.091 355.927 750.271L355.927 765.666C355.927 772.845 350.107 778.666 342.927 778.666L286.138 778.666C278.959 778.666 273.138 772.845 273.138 765.666L273.138 750.271Z" fill="#030101"/>
<path d="M292.567 769.973V768.449L295.68 767.721L303.727 746.626H306.111L313.661 767.754L316.708 768.449V769.973H306.972V768.449L309.422 767.886L307.833 763.416H299.72L297.998 767.787L300.912 768.449V769.973H292.567ZM300.448 761.462H307.104L303.859 752.421L300.448 761.462Z" fill="white"/>
<path d="M318.158 763.316V761.197H321.238L322.43 754.872H319.019V752.753H322.861L324.053 746.295H326.239L325.013 752.753H329.451L330.676 746.295H332.862L331.603 752.753H334.683V754.872H331.239L330.014 761.197H333.789V763.316H329.616L328.391 769.973H326.239L327.464 763.316H323.026L321.768 769.973H319.615L320.874 763.316H318.158ZM323.391 761.197H327.861L329.086 754.872H324.583L323.391 761.197Z" fill="white"/>
<path d="M258.317 57.65L259.417 55.3C261.517 56.2333 263.667 56.7 265.867 56.7C268.533 56.7 270.717 55.9333 272.417 54.4C274.15 52.8667 275.017 50.6667 275.017 47.8C275.017 45.5333 274.333 43.6667 272.967 42.2C271.6 40.7 269.567 39.95 266.867 39.95C265.7 39.95 264.117 40.1667 262.117 40.6L261.017 39.95L262.467 24H277.317L279.417 22L281.417 22.9L279.117 28.8H265.317L264.567 37.35C266.267 36.9167 267.983 36.7 269.717 36.7C271.617 36.7 273.317 37.0333 274.817 37.7C276.35 38.3333 277.567 39.1833 278.467 40.25C279.4 41.2833 280.1 42.4167 280.567 43.65C281.033 44.8833 281.267 46.1333 281.267 47.4C281.267 51.1667 279.883 54.1667 277.117 56.4C274.383 58.6333 271.167 59.75 267.467 59.75C263.733 59.75 260.717 59.0667 258.417 57.7L258.317 57.65ZM299.433 23.25C303.499 23.25 306.716 24.95 309.083 28.35C311.483 31.7167 312.683 36.1 312.683 41.5C312.683 46.8333 311.483 51.2167 309.083 54.65C306.716 58.05 303.499 59.75 299.433 59.75C295.366 59.75 292.133 58.05 289.733 54.65C287.366 51.2167 286.183 46.8333 286.183 41.5C286.183 36.1333 287.366 31.75 289.733 28.35C292.133 24.95 295.366 23.25 299.433 23.25ZM299.433 26.2C297.266 26.2 295.583 27.6833 294.383 30.65C293.183 33.6167 292.583 37.2333 292.583 41.5C292.583 45.7667 293.183 49.3833 294.383 52.35C295.583 55.3167 297.266 56.8 299.433 56.8C301.599 56.8 303.283 55.3167 304.483 52.35C305.683 49.3833 306.283 45.7667 306.283 41.5C306.283 37.2333 305.683 33.6167 304.483 30.65C303.283 27.6833 301.599 26.2 299.433 26.2ZM331.025 23.25C335.091 23.25 338.308 24.95 340.675 28.35C343.075 31.7167 344.275 36.1 344.275 41.5C344.275 46.8333 343.075 51.2167 340.675 54.65C338.308 58.05 335.091 59.75 331.025 59.75C326.958 59.75 323.725 58.05 321.325 54.65C318.958 51.2167 317.775 46.8333 317.775 41.5C317.775 36.1333 318.958 31.75 321.325 28.35C323.725 24.95 326.958 23.25 331.025 23.25ZM331.025 26.2C328.858 26.2 327.175 27.6833 325.975 30.65C324.775 33.6167 324.175 37.2333 324.175 41.5C324.175 45.7667 324.775 49.3833 325.975 52.35C327.175 55.3167 328.858 56.8 331.025 56.8C333.191 56.8 334.875 55.3167 336.075 52.35C337.275 49.3833 337.875 45.7667 337.875 41.5C337.875 37.2333 337.275 33.6167 336.075 30.65C334.875 27.6833 333.191 26.2 331.025 26.2ZM362.616 23.25C366.683 23.25 369.9 24.95 372.266 28.35C374.666 31.7167 375.866 36.1 375.866 41.5C375.866 46.8333 374.666 51.2167 372.266 54.65C369.9 58.05 366.683 59.75 362.616 59.75C358.55 59.75 355.316 58.05 352.916 54.65C350.55 51.2167 349.366 46.8333 349.366 41.5C349.366 36.1333 350.55 31.75 352.916 28.35C355.316 24.95 358.55 23.25 362.616 23.25ZM362.616 26.2C360.45 26.2 358.766 27.6833 357.566 30.65C356.366 33.6167 355.766 37.2333 355.766 41.5C355.766 45.7667 356.366 49.3833 357.566 52.35C358.766 55.3167 360.45 56.8 362.616 56.8C364.783 56.8 366.466 55.3167 367.666 52.35C368.866 49.3833 369.466 45.7667 369.466 41.5C369.466 37.2333 368.866 33.6167 367.666 30.65C366.466 27.6833 364.783 26.2 362.616 26.2ZM394.208 23.25C398.275 23.25 401.492 24.95 403.858 28.35C406.258 31.7167 407.458 36.1 407.458 41.5C407.458 46.8333 406.258 51.2167 403.858 54.65C401.492 58.05 398.275 59.75 394.208 59.75C390.142 59.75 386.908 58.05 384.508 54.65C382.142 51.2167 380.958 46.8333 380.958 41.5C380.958 36.1333 382.142 31.75 384.508 28.35C386.908 24.95 390.142 23.25 394.208 23.25ZM394.208 26.2C392.042 26.2 390.358 27.6833 389.158 30.65C387.958 33.6167 387.358 37.2333 387.358 41.5C387.358 45.7667 387.958 49.3833 389.158 52.35C390.358 55.3167 392.042 56.8 394.208 56.8C396.375 56.8 398.058 55.3167 399.258 52.35C400.458 49.3833 401.058 45.7667 401.058 41.5C401.058 37.2333 400.458 33.6167 399.258 30.65C398.058 27.6833 396.375 26.2 394.208 26.2Z" fill="black"/>
<path d="M12.9393 27.9393C12.3536 28.5251 12.3536 29.4749 12.9393 30.0607L22.4853 39.6066C23.0711 40.1924 24.0208 40.1924 24.6066 39.6066C25.1924 39.0208 25.1924 38.0711 24.6066 37.4853L16.1213 29L24.6066 20.5147C25.1924 19.9289 25.1924 18.9792 24.6066 18.3934C24.0208 17.8076 23.0711 17.8076 22.4853 18.3934L12.9393 27.9393ZM35 27.5L14 27.5L14 30.5L35 30.5L35 27.5Z" fill="black"/>
</g>
<defs>
<filter id="filter0_d_448_2" x="56.3704" y="618.469" width="94.5796" height="94.5795" filterUnits="userSpaceOnUse" color-interpolation-filters="sRGB">
<feFlood flood-opacity="0" result="BackgroundImageFix"/>
<feColorMatrix in="SourceAlpha" type="matrix" values="0 0 0 0 0 0 0 0 0 0 0 0 0 0 0 0 0 0 127 0" result="hardAlpha"/>
<feOffset dy="4"/>
<feGaussianBlur stdDeviation="2"/>
<feComposite in2="hardAlpha" operator="out"/>
<feColorMatrix type="matrix" values="0 0 0 0 0 0 0 0 0 0 0 0 0 0 0 0 0 0 0.25 0"/>
<feBlend mode="normal" in2="BackgroundImageFix" result="effect1_dropShadow_448_2"/>
<feBlend mode="normal" in="SourceGraphic" in2="effect1_dropShadow_448_2" result="shape"/>
</filter>
<filter id="filter1_d_448_2" x="155.43" y="618.469" width="94.5796" height="94.5795" filterUnits="userSpaceOnUse" color-interpolation-filters="sRGB">
<feFlood flood-opacity="0" result="BackgroundImageFix"/>
<feColorMatrix in="SourceAlpha" type="matrix" values="0 0 0 0 0 0 0 0 0 0 0 0 0 0 0 0 0 0 127 0" result="hardAlpha"/>
<feOffset dy="4"/>
<feGaussianBlur stdDeviation="2"/>
<feComposite in2="hardAlpha" operator="out"/>
<feColorMatrix type="matrix" values="0 0 0 0 0 0 0 0 0 0 0 0 0 0 0 0 0 0 0.25 0"/>
<feBlend mode="normal" in2="BackgroundImageFix" result="effect1_dropShadow_448_2"/>
<feBlend mode="normal" in="SourceGraphic" in2="effect1_dropShadow_448_2" result="shape"/>
</filter>
<filter id="filter2_d_448_2" x="18" y="789.842" width="94.5796" height="94.5795" filterUnits="userSpaceOnUse" color-interpolation-filters="sRGB">
<feFlood flood-opacity="0" result="BackgroundImageFix"/>
<feColorMatrix in="SourceAlpha" type="matrix" values="0 0 0 0 0 0 0 0 0 0 0 0 0 0 0 0 0 0 127 0" result="hardAlpha"/>
<feOffset dy="4"/>
<feGaussianBlur stdDeviation="2"/>
<feComposite in2="hardAlpha" operator="out"/>
<feColorMatrix type="matrix" values="0 0 0 0 0 0 0 0 0 0 0 0 0 0 0 0 0 0 0.25 0"/>
<feBlend mode="normal" in2="BackgroundImageFix" result="effect1_dropShadow_448_2"/>
<feBlend mode="normal" in="SourceGraphic" in2="effect1_dropShadow_448_2" result="shape"/>
</filter>
<filter id="filter3_d_448_2" x="254.777" y="618.469" width="94.5796" height="94.5795" filterUnits="userSpaceOnUse" color-interpolation-filters="sRGB">
<feFlood flood-opacity="0" result="BackgroundImageFix"/>
<feColorMatrix in="SourceAlpha" type="matrix" values="0 0 0 0 0 0 0 0 0 0 0 0 0 0 0 0 0 0 127 0" result="hardAlpha"/>
<feOffset dy="4"/>
<feGaussianBlur stdDeviation="2"/>
<feComposite in2="hardAlpha" operator="out"/>
<feColorMatrix type="matrix" values="0 0 0 0 0 0 0 0 0 0 0 0 0 0 0 0 0 0 0.25 0"/>
<feBlend mode="normal" in2="BackgroundImageFix" result="effect1_dropShadow_448_2"/>
<feBlend mode="normal" in="SourceGraphic" in2="effect1_dropShadow_448_2" result="shape"/>
</filter>
<filter id="filter4_d_448_2" x="117.347" y="789.842" width="94.5796" height="94.5795" filterUnits="userSpaceOnUse" color-interpolation-filters="sRGB">
<feFlood flood-opacity="0" result="BackgroundImageFix"/>
<feColorMatrix in="SourceAlpha" type="matrix" values="0 0 0 0 0 0 0 0 0 0 0 0 0 0 0 0 0 0 127 0" result="hardAlpha"/>
<feOffset dy="4"/>
<feGaussianBlur stdDeviation="2"/>
<feComposite in2="hardAlpha" operator="out"/>
<feColorMatrix type="matrix" values="0 0 0 0 0 0 0 0 0 0 0 0 0 0 0 0 0 0 0.25 0"/>
<feBlend mode="normal" in2="BackgroundImageFix" result="effect1_dropShadow_448_2"/>
<feBlend mode="normal" in="SourceGraphic" in2="effect1_dropShadow_448_2" result="shape"/>
</filter>
<filter id="filter5_d_448_2" x="216.694" y="789.842" width="94.5796" height="94.5795" filterUnits="userSpaceOnUse" color-interpolation-filters="sRGB">
<feFlood flood-opacity="0" result="BackgroundImageFix"/>
<feColorMatrix in="SourceAlpha" type="matrix" values="0 0 0 0 0 0 0 0 0 0 0 0 0 0 0 0 0 0 127 0" result="hardAlpha"/>
<feOffset dy="4"/>
<feGaussianBlur stdDeviation="2"/>
<feComposite in2="hardAlpha" operator="out"/>
<feColorMatrix type="matrix" values="0 0 0 0 0 0 0 0 0 0 0 0 0 0 0 0 0 0 0.25 0"/>
<feBlend mode="normal" in2="BackgroundImageFix" result="effect1_dropShadow_448_2"/>
<feBlend mode="normal" in="SourceGraphic" in2="effect1_dropShadow_448_2" result="shape"/>
</filter>
<filter id="filter6_d_448_2" x="316.328" y="789.842" width="94.5796" height="94.5795" filterUnits="userSpaceOnUse" color-interpolation-filters="sRGB">
<feFlood flood-opacity="0" result="BackgroundImageFix"/>
<feColorMatrix in="SourceAlpha" type="matrix" values="0 0 0 0 0 0 0 0 0 0 0 0 0 0 0 0 0 0 127 0" result="hardAlpha"/>
<feOffset dy="4"/>
<feGaussianBlur stdDeviation="2"/>
<feComposite in2="hardAlpha" operator="out"/>
<feColorMatrix type="matrix" values="0 0 0 0 0 0 0 0 0 0 0 0 0 0 0 0 0 0 0.25 0"/>
<feBlend mode="normal" in2="BackgroundImageFix" result="effect1_dropShadow_448_2"/>
<feBlend mode="normal" in="SourceGraphic" in2="effect1_dropShadow_448_2" result="shape"/>
</filter>
<filter id="filter7_d_448_2" x="99.4207" y="563" width="102.379" height="55.1898" filterUnits="userSpaceOnUse" color-interpolation-filters="sRGB">
<feFlood flood-opacity="0" result="BackgroundImageFix"/>
<feColorMatrix in="SourceAlpha" type="matrix" values="0 0 0 0 0 0 0 0 0 0 0 0 0 0 0 0 0 0 127 0" result="hardAlpha"/>
<feOffset dy="4"/>
<feGaussianBlur stdDeviation="2"/>
<feComposite in2="hardAlpha" operator="out"/>
<feColorMatrix type="matrix" values="0 0 0 0 0 0 0 0 0 0 0 0 0 0 0 0 0 0 0.25 0"/>
<feBlend mode="normal" in2="BackgroundImageFix" result="effect1_dropShadow_448_2"/>
<feBlend mode="normal" in="SourceGraphic" in2="effect1_dropShadow_448_2" result="shape"/>
</filter>
<filter id="filter8_d_448_2" x="42.2964" y="734.373" width="102.379" height="55.1898" filterUnits="userSpaceOnUse" color-interpolation-filters="sRGB">
<feFlood flood-opacity="0" result="BackgroundImageFix"/>
<feColorMatrix in="SourceAlpha" type="matrix" values="0 0 0 0 0 0 0 0 0 0 0 0 0 0 0 0 0 0 127 0" result="hardAlpha"/>
<feOffset dy="4"/>
<feGaussianBlur stdDeviation="2"/>
<feComposite in2="hardAlpha" operator="out"/>
<feColorMatrix type="matrix" values="0 0 0 0 0 0 0 0 0 0 0 0 0 0 0 0 0 0 0.25 0"/>
<feBlend mode="normal" in2="BackgroundImageFix" result="effect1_dropShadow_448_2"/>
<feBlend mode="normal" in="SourceGraphic" in2="effect1_dropShadow_448_2" result="shape"/>
</filter>
<filter id="filter9_d_448_2" x="210.358" y="563" width="102.379" height="55.1898" filterUnits="userSpaceOnUse" color-interpolation-filters="sRGB">
<feFlood flood-opacity="0" result="BackgroundImageFix"/>
<feColorMatrix in="SourceAlpha" type="matrix" values="0 0 0 0 0 0 0 0 0 0 0 0 0 0 0 0 0 0 127 0" result="hardAlpha"/>
<feOffset dy="4"/>
<feGaussianBlur stdDeviation="2"/>
<feComposite in2="hardAlpha" operator="out"/>
<feColorMatrix type="matrix" values="0 0 0 0 0 0 0 0 0 0 0 0 0 0 0 0 0 0 0.25 0"/>
<feBlend mode="normal" in2="BackgroundImageFix" result="effect1_dropShadow_448_2"/>
<feBlend mode="normal" in="SourceGraphic" in2="effect1_dropShadow_448_2" result="shape"/>
</filter>
<filter id="filter10_d_448_2" x="153.234" y="734.373" width="102.379" height="55.1898" filterUnits="userSpaceOnUse" color-interpolation-filters="sRGB">
<feFlood flood-opacity="0" result="BackgroundImageFix"/>
<feColorMatrix in="SourceAlpha" type="matrix" values="0 0 0 0 0 0 0 0 0 0 0 0 0 0 0 0 0 0 127 0" result="hardAlpha"/>
<feOffset dy="4"/>
<feGaussianBlur stdDeviation="2"/>
<feComposite in2="hardAlpha" operator="out"/>
<feColorMatrix type="matrix" values="0 0 0 0 0 0 0 0 0 0 0 0 0 0 0 0 0 0 0.25 0"/>
<feBlend mode="normal" in2="BackgroundImageFix" result="effect1_dropShadow_448_2"/>
<feBlend mode="normal" in="SourceGraphic" in2="effect1_dropShadow_448_2" result="shape"/>
</filter>
<filter id="filter11_d_448_2" x="263.343" y="734.373" width="102.379" height="55.1898" filterUnits="userSpaceOnUse" color-interpolation-filters="sRGB">
<feFlood flood-opacity="0" result="BackgroundImageFix"/>
<feColorMatrix in="SourceAlpha" type="matrix" values="0 0 0 0 0 0 0 0 0 0 0 0 0 0 0 0 0 0 127 0" result="hardAlpha"/>
<feOffset dy="4"/>
<feGaussianBlur stdDeviation="2"/>
<feComposite in2="hardAlpha" operator="out"/>
<feColorMatrix type="matrix" values="0 0 0 0 0 0 0 0 0 0 0 0 0 0 0 0 0 0 0.25 0"/>
<feBlend mode="normal" in2="BackgroundImageFix" result="effect1_dropShadow_448_2"/>
<feBlend mode="normal" in="SourceGraphic" in2="effect1_dropShadow_448_2" result="shape"/>
</filter>
<radialGradient id="paint0_radial_448_2" cx="0" cy="0" r="1" gradientUnits="userSpaceOnUse" gradientTransform="translate(349.5 252.5) rotate(112.545) scale(858.078 1206.72)">
<stop stop-color="white"/>
<stop offset="0.428674" stop-color="#FFF9CC"/>
<stop offset="0.675755" stop-color="#FFF5AD"/>
<stop offset="0.875" stop-color="#E1AB42"/>
<stop offset="1" stop-color="#90150A"/>
</radialGradient>
<linearGradient id="paint1_linear_448_2" x1="190" y1="393.462" x2="190" y2="150.462" gradientUnits="userSpaceOnUse">
<stop stop-opacity="0"/>
<stop offset="0.232934"/>
<stop offset="0.494792"/>
<stop offset="0.734275"/>
<stop offset="0.734375"/>
<stop offset="1" stop-opacity="0"/>
</linearGradient>
<linearGradient id="paint2_linear_448_2" x1="108.597" y1="686.821" x2="107.457" y2="713.023" gradientUnits="userSpaceOnUse">
<stop stop-color="#F1F1F1"/>
<stop offset="1" stop-color="#D3D3D3"/>
</linearGradient>
<linearGradient id="paint3_linear_448_2" x1="207.656" y1="686.821" x2="206.517" y2="713.023" gradientUnits="userSpaceOnUse">
<stop stop-color="#F1F1F1"/>
<stop offset="1" stop-color="#D3D3D3"/>
</linearGradient>
<linearGradient id="paint4_linear_448_2" x1="70.2263" y1="858.194" x2="69.0871" y2="884.396" gradientUnits="userSpaceOnUse">
<stop stop-color="#F1F1F1"/>
<stop offset="1" stop-color="#D3D3D3"/>
</linearGradient>
<linearGradient id="paint5_linear_448_2" x1="307.003" y1="686.821" x2="305.864" y2="713.023" gradientUnits="userSpaceOnUse">
<stop stop-color="#F1F1F1"/>
<stop offset="1" stop-color="#D3D3D3"/>
</linearGradient>
<linearGradient id="paint6_linear_448_2" x1="169.573" y1="858.194" x2="168.434" y2="884.396" gradientUnits="userSpaceOnUse">
<stop stop-color="#F1F1F1"/>
<stop offset="1" stop-color="#D3D3D3"/>
</linearGradient>
<linearGradient id="paint7_linear_448_2" x1="268.92" y1="858.194" x2="267.781" y2="884.396" gradientUnits="userSpaceOnUse">
<stop stop-color="#F1F1F1"/>
<stop offset="1" stop-color="#D3D3D3"/>
</linearGradient>
<linearGradient id="paint8_linear_448_2" x1="368.554" y1="858.194" x2="367.415" y2="884.396" gradientUnits="userSpaceOnUse">
<stop stop-color="#F1F1F1"/>
<stop offset="1" stop-color="#D3D3D3"/>
</linearGradient>
<linearGradient id="paint9_linear_448_2" x1="155.992" y1="600.255" x2="155.681" y2="614.557" gradientUnits="userSpaceOnUse">
<stop stop-color="#1B0E0E"/>
<stop offset="1" stop-color="#4B3232"/>
</linearGradient>
<linearGradient id="paint10_linear_448_2" x1="98.8674" y1="771.628" x2="98.5565" y2="785.93" gradientUnits="userSpaceOnUse">
<stop stop-color="#1B0E0E"/>
<stop offset="1" stop-color="#4B3232"/>
</linearGradient>
<linearGradient id="paint11_linear_448_2" x1="266.929" y1="600.255" x2="266.618" y2="614.557" gradientUnits="userSpaceOnUse">
<stop stop-color="#1B0E0E"/>
<stop offset="1" stop-color="#4B3232"/>
</linearGradient>
<linearGradient id="paint12_linear_448_2" x1="209.805" y1="771.628" x2="209.494" y2="785.93" gradientUnits="userSpaceOnUse">
<stop stop-color="#1B0E0E"/>
<stop offset="1" stop-color="#4B3232"/>
</linearGradient>
<linearGradient id="paint13_linear_448_2" x1="319.914" y1="771.628" x2="319.603" y2="785.93" gradientUnits="userSpaceOnUse">
<stop stop-color="#1B0E0E"/>
<stop offset="1" stop-color="#4B3232"/>
</linearGradient>
<clipPath id="clip0_448_2">
<rect width="428" height="926" fill="white"/>
</clipPath>
</defs>
</svg>
