<svg width="78" height="82" viewBox="0 0 78 82" fill="none" xmlns="http://www.w3.org/2000/svg">
<path d="M33.9744 23.8939C41.3205 13.069 50.6489 5.62696 61.6356 1.82681C72.2346 -1.84003 77.4361 0.00585938 77.4361 7.43166C77.4361 13.7725 72.213 22.577 54.2201 46.5626C41.2555 63.8454 37.6117 69.4145 38.084 71.2214C38.5389 72.9599 38.2063 73.555 36.7819 73.555C35.7302 73.555 33.2118 75.2621 31.1873 77.3486C25.3804 83.3318 23.045 81.9931 28.3288 75.7087C31.4365 72.0137 31.4343 72.0083 25.3771 68.7165C19.7889 65.6772 8.39707 52.2141 4.16506 43.6458C0.262346 35.7431 0.01104 34.6321 0.000208184 25.2499C-0.00954049 16.7868 0.317573 14.8986 2.14816 12.8696C7.17522 7.29726 18.8422 14.0814 25.0315 26.1745C26.4917 29.0284 28.1587 31.0704 28.7361 30.7138C29.3145 30.3572 31.6715 27.2876 33.9744 23.8939Z" fill="black"/>
</svg>
