<svg width="83" height="82" viewBox="0 0 83 82" fill="none" xmlns="http://www.w3.org/2000/svg">
<path fill-rule="evenodd" clip-rule="evenodd" d="M38.9745 23.894C46.3205 13.0688 55.6489 5.62691 66.6357 1.82662C77.2347 -1.83988 82.4361 0.00582123 82.4361 7.4316C82.4361 13.7724 77.213 22.5771 59.2202 46.5625C46.2556 63.8457 42.6117 69.4145 43.084 71.2212C43.5389 72.9599 43.2064 73.5551 41.7819 73.5551C40.7302 73.5551 38.2118 75.2622 36.1873 77.3486C30.3803 83.332 28.045 81.9931 33.3288 75.7089C36.4365 72.0136 36.4343 72.0083 30.3772 68.7163C24.789 65.6772 13.3971 52.2143 9.16513 43.646C5.26242 35.7431 5.01107 34.6323 5.00021 25.25C4.99044 16.7866 5.31759 14.8989 7.14816 12.8696C12.1753 7.29733 23.8423 14.0815 30.0316 26.1743C31.4917 29.0283 33.1588 31.0703 33.7362 30.7138C34.3145 30.3574 36.6716 27.2876 38.9745 23.894ZM54.127 49.1674C68.164 29.5117 77.0202 13.4702 77.0202 7.69918C77.0202 4.34908 76.8317 4.18844 72.9582 4.25582C61.6682 4.45113 49.8007 12.6982 40.7335 26.6504C37.1589 32.1499 33.8954 36.6621 33.4815 36.6762C33.0666 36.6904 30.9415 33.3012 28.7578 29.1435C22.0626 16.3921 11.911 9.1694 8.81747 14.9531C6.94345 18.456 7.53707 29.3071 10.0013 36.6093C12.9823 45.4419 21.6759 58.4043 27.4851 62.6792C31.7149 65.792 39.7098 69.0625 40.5872 68.038C40.7962 67.7939 46.8892 59.3017 54.127 49.1674Z" fill="black"/>
<path fill-rule="evenodd" clip-rule="evenodd" d="M42.7204 26.7452C49.2546 18.5012 60.238 7.82962 64.3557 5.72278C66.5647 4.59327 69.2603 3.8673 70.3449 4.11004C72.0115 4.4832 72.2495 5.05989 71.8721 7.80561C71.3004 11.9703 67.1423 21.1198 58.3614 37.5317C44.147 64.0984 35.7934 78.4761 35.4406 76.9768C35.2425 76.1373 35.4658 74.2716 35.9359 72.8297C36.406 71.3886 36.5029 69.8464 36.1521 69.4032C35.8012 68.9591 31.3256 65.7127 26.2077 62.1879C14.1941 53.9153 9.46379 49.1215 5.08971 40.784C-3.23342 24.9198 0.227186 10.986 12.5779 10.6289C15.163 10.5541 18.7586 11.0446 20.5669 11.7189C25.0665 13.3978 31.9537 19.9215 35.8309 26.1783L39.0508 31.376L42.7204 26.7452ZM66.5783 8.14418C67.0696 8.12998 67.453 7.4954 67.431 6.73445C67.3897 5.30813 66.2585 4.93363 65.2203 6.0035C64.4836 6.76268 65.3819 8.17877 66.5783 8.14418ZM7.24396 18.55C10.3994 15.805 12.5584 13.534 12.5423 12.9767C12.5344 12.702 11.7054 12.5005 10.6998 12.5296C8.67724 12.588 5.05599 16.7619 5.11956 18.9604C5.15284 20.1116 5.53334 20.0378 7.24396 18.55ZM5.53537 34.3594C6.32394 34.8029 15.5372 18.0432 15.4856 16.2599C15.4014 13.3465 11.7092 16.8033 8.04659 23.2244C6.86916 25.2899 5.33594 27.4285 4.63967 27.9756C3.36686 28.9774 4.00073 33.4962 5.53537 34.3594ZM24.1278 18.1679C25.7579 19.0849 25.0733 17.4397 23.3176 16.2202C22.3855 15.572 21.3863 15.0361 21.0985 15.0286C20.8105 15.0203 18.8471 18.1737 16.735 22.0353C13.9665 27.0966 13.1452 29.4617 13.7899 30.5116C14.6786 31.9575 15.3299 31.1031 21.9501 19.7923C22.6405 18.6135 23.6202 17.8827 24.1278 18.1679ZM25.6325 34.6464C27.6063 29.5506 29.6108 24.8936 30.0862 24.2963C30.6636 23.5725 30.1606 22.3662 28.5774 20.6771L26.2036 18.1449L23.4103 22.7112C19.1547 29.6685 15.003 40.8784 15.7403 43.4251C16.3776 45.6299 18.5915 46.181 20.8482 44.6966C21.506 44.2637 23.6587 39.7409 25.6325 34.6464ZM53.3566 28.0686C54.7445 32.0669 55.3292 32.5512 56.4724 30.6514C57.3802 29.144 57.1695 28.6543 55.0788 27.4057C52.6566 25.9584 52.6276 25.9697 53.3566 28.0686ZM34.5191 47.1763C37.015 41.4203 37.2951 37.9736 35.6971 32.6525C34.9532 30.1738 33.8307 27.9989 33.2036 27.8182C31.6439 27.3704 29.2318 32.508 29.9221 34.8077C30.5851 37.0171 28.4124 41.766 24.7613 46.0875C22.714 48.5113 22.161 50.1041 22.2538 53.3154C22.3454 56.4827 22.7249 57.4246 23.8965 57.3908C26.6125 57.3122 32.6348 51.5216 34.5191 47.1763ZM45.9239 34.5942C47.0986 35.4874 47.3551 35.4579 47.2487 34.4378C46.9655 31.7053 45.7152 28.9505 45.0634 29.622C43.9228 30.7971 44.3755 33.4173 45.9239 34.5942ZM18.5837 49.5271C13.6561 47.9854 12.3995 44.3552 14.2615 37.0386C14.762 35.0722 15.0309 33.3686 14.8594 33.2517C14.687 33.1344 13.0356 34.6321 11.1882 36.5789L7.82969 40.1183L10.5993 44.5208C14.0437 49.9953 18.1839 54.1498 19.4106 53.3627C20.9031 52.4066 20.4052 50.0967 18.5837 49.5271ZM47.2423 47.4844C50.5581 46.1477 50.1364 45.0573 45.6869 43.4731C43.5658 42.7175 41.6311 42.105 41.3873 42.1121C40.3173 42.143 35.5427 55.75 36.3436 56.486C37.7041 57.7348 39.2651 56.686 41.9876 52.6916C43.5852 50.3482 45.949 48.0047 47.2423 47.4844ZM37.8322 61.6044C36.8692 61.6322 35.3986 60.9472 34.5628 60.083C33.7279 59.2191 32.8718 57.7527 32.6599 56.8254C32.3141 55.3073 32.0607 55.3766 30.1089 57.5231C27.5185 60.3736 27.8734 61.055 33.4073 63.8586C36.4561 65.403 37.936 65.7204 38.6532 64.9814C40.2096 63.3778 39.7646 61.5485 37.8322 61.6044Z" fill="black"/>
</svg>
