<svg width="78" height="82" viewBox="0 0 78 82" fill="none" xmlns="http://www.w3.org/2000/svg">
<path fill-rule="evenodd" clip-rule="evenodd" d="M33.9744 23.8939C41.3205 13.069 50.6489 5.62696 61.6357 1.82681C72.2346 -1.84003 77.4361 0.00585938 77.4361 7.43166C77.4361 13.7725 72.213 22.577 54.2202 46.5626C41.2555 63.8454 37.6117 69.4145 38.084 71.2214C38.5389 72.9599 38.2063 73.555 36.782 73.555C35.7302 73.555 33.2118 75.2621 31.1873 77.3486C25.3804 83.3318 23.045 81.9931 28.3288 75.7087C31.4365 72.0137 31.4343 72.0083 25.3771 68.7165C19.789 65.6772 8.39707 52.2141 4.16506 43.6458C0.262346 35.7431 0.01104 34.6321 0.000208184 25.2499C-0.00954049 16.7868 0.317573 14.8986 2.14816 12.8696C7.17522 7.29726 18.8422 14.0814 25.0316 26.1745C26.4917 29.0284 28.1587 31.0704 28.7361 30.7138C29.3145 30.3572 31.6715 27.2876 33.9744 23.8939ZM49.127 49.1672C63.164 29.5118 72.0202 13.4701 72.0202 7.69938C72.0202 4.34904 71.8317 4.18863 67.9582 4.25583C56.6682 4.45093 44.8008 12.6983 35.7334 26.6503C32.1589 32.15 28.8953 36.6623 28.4815 36.6764C28.0666 36.6905 25.9415 33.3011 23.7578 29.1433C17.0626 16.3923 6.91096 9.16915 3.81738 14.9528C1.94347 18.456 2.53703 29.3069 5.00128 36.6092C7.9822 45.4419 16.6759 58.4042 22.485 62.6791C26.7149 65.7921 34.7098 69.0622 35.5872 68.0379C35.7962 67.7941 41.8892 59.3017 49.127 49.1672Z" fill="black"/>
</svg>
