<svg width="512" height="456" viewBox="0 0 512 456" fill="none" xmlns="http://www.w3.org/2000/svg">
<path d="M124.574 92.7071C191.08 44.0051 247.039 3.21613 248.928 2.06513C254.183 -1.13987 258.594 -0.664867 265.456 3.84413C268.704 5.97813 324.461 46.6281 389.361 94.1781C462.636 147.864 508.214 181.888 509.611 183.946C515.646 192.834 508.572 204.608 497.754 203.68C493.44 203.31 485.627 197.777 375.254 116.932C310.413 69.4381 256.686 30.5851 255.861 30.5921C255.036 30.6001 201.936 69.0191 137.861 115.968C73.7857 162.918 20.2357 201.921 18.8607 202.641C7.88066 208.396 -4.69634 194.95 1.76066 184.36C2.98166 182.359 46.5857 149.818 124.574 92.7071Z" fill="white"/>
<path d="M56.0607 325.964C56.3907 203.404 55.9767 211.163 62.4157 206.918C66.4767 204.241 73.7557 204.307 77.2457 207.052C83.1787 211.719 82.8607 205.179 82.8607 322.414V429.964H135.789H188.716L189.125 366.714C189.574 297.207 189.418 299.067 195.975 285.258C203.959 268.442 221.396 254.087 239.303 249.589C247.469 247.538 263.253 247.497 271.773 249.505C289.84 253.764 306.062 266.724 315.059 284.086C322.2 297.867 322.139 297.201 322.591 367.214L322.995 429.964H375.928H428.861V322.414C428.861 229.416 429.061 214.477 430.341 212.003C435.083 202.832 448.756 202.379 453.594 211.231C455.248 214.258 455.38 221.585 455.661 325.964C455.826 387.289 455.675 439.875 455.326 442.822C454.831 446.989 453.948 448.989 451.353 451.822L448.015 455.464L376.926 455.734C298.327 456.032 301.868 456.303 297.821 449.665C295.935 446.574 295.868 444.146 295.865 378.763C295.862 332.459 295.506 309.388 294.737 305.763C291.351 289.807 278.896 277.863 262.49 274.84C241.877 271.042 221.4 284.957 216.985 305.763C216.216 309.388 215.86 332.459 215.857 378.763C215.854 444.146 215.787 446.574 213.901 449.665C209.854 456.303 213.395 456.032 134.796 455.734L63.7067 455.464L60.3687 451.822C57.7737 448.989 56.8907 446.989 56.3957 442.822C56.0467 439.875 55.8957 387.289 56.0607 325.964Z" fill="white"/>
</svg>
