<svg width="325" height="292" viewBox="0 0 325 292" fill="none" xmlns="http://www.w3.org/2000/svg">
<path fill-rule="evenodd" clip-rule="evenodd" d="M123.36 1.35907C91.5914 6.62007 63.3464 21.3761 41.1694 44.3001C21.0304 65.1181 8.32243 89.1231 2.17243 117.964C-0.397574 130.019 -0.401571 161.931 2.16643 173.839C8.70943 204.185 21.3564 227.586 42.7984 249.022C69.1974 275.413 101.579 289.994 137.36 291.601C149.897 292.164 150.484 292.1 153.836 289.801C164.282 282.636 164.649 270.047 154.629 262.625C152.468 261.024 149.019 260.334 138.105 259.316C121.03 257.724 109.754 254.617 95.3604 247.539C68.1834 234.175 48.4234 211.847 38.5704 183.37C33.6084 169.03 32.3684 161.385 32.4194 145.464C32.4664 130.714 33.3944 124.525 37.5194 111.464C49.9344 72.1521 81.9294 43.4711 123.526 34.3651C134.434 31.9771 156.51 31.991 167.86 34.394C208.687 43.035 241.073 71.834 253.816 110.829C255.449 115.825 257.084 122.174 257.451 124.938L258.118 129.964H248.723C241.501 129.964 238.523 130.392 235.844 131.816C231.689 134.024 228.152 138.89 227.265 143.619C225.967 150.539 228.546 154.228 248.611 174.154C276.479 201.829 275.241 201.829 303.109 174.154C323.174 154.228 325.753 150.539 324.455 143.619C323.547 138.778 319.919 133.765 315.84 131.716C313.184 130.381 309.857 129.967 301.783 129.966L291.206 129.964L289.991 122.025C285.535 92.915 271.065 65.0331 248.928 42.8961C228.066 22.0331 205.567 9.67708 175.949 2.81708C164.768 0.227082 135.153 -0.593926 123.36 1.35907Z" fill="white"/>
</svg>
