<svg width="160" height="298" viewBox="0 0 160 298" fill="none" xmlns="http://www.w3.org/2000/svg">
<path d="M9.28541 291.069C-9.30494 274.162 0.986137 247.309 31.5274 231.397C41.8185 226.424 49.4538 224.103 62.7327 224.435C71.0319 224.766 80.3271 229.408 80.3271 229.408C80.3271 169.404 79.9951 56.0258 79.9951 0.33151C83.3148 0.33151 85.6386 -3.74338e-06 90.2862 -3.94653e-06C90.2862 3.31513 90.2862 5.96725 90.2862 8.61936C90.2862 11.603 90.2862 13.2605 90.6182 15.2496C93.9379 36.135 98.5855 44.4228 121.823 69.9494C151.369 102.769 160 122.329 160 148.518C159.668 173.05 138.09 225.429 133.442 223.44C140.082 204.876 149.377 184.985 151.701 168.409C154.688 148.187 146.389 119.676 133.11 104.758C122.487 92.1608 97.2576 81.2209 90.2862 81.2209C90.2862 81.2209 89.9542 201.892 89.9542 247.641C89.9542 255.266 82.9829 268.858 78.9992 273.499C60.7408 295.379 25.22 305.324 9.28541 291.069Z" fill="white"/>
</svg>
