<svg width="90" height="246" viewBox="0 0 90 246" fill="none" xmlns="http://www.w3.org/2000/svg">
<path d="M80.8523 127.269C74.2039 119.671 64.7062 114.922 53.309 115.872C52.3592 113.972 48.5601 94.977 48.5601 94.977C48.5601 94.977 61.8569 75.0318 64.7062 71.2327C78.9528 48.4383 79.9025 30.3926 71.3546 12.347C68.5053 5.69862 60.9071 0 53.309 0C47.6104 0 42.8615 4.74885 40.0122 10.4475C30.5145 26.5936 30.5145 56.9862 35.2634 77.8811C35.2634 77.8811 30.5145 82.63 25.7657 88.3286C16.268 98.7761 5.82049 110.173 2.02141 125.37C-2.72744 142.465 1.07164 158.612 11.5191 170.959C22.9163 185.205 40.0122 191.853 60.9071 189.954C64.7062 208 67.5555 219.397 61.8569 229.844C59.9574 233.643 56.1583 237.442 49.5099 237.442C47.6104 237.442 46.6606 237.442 44.7611 236.493C50.4597 233.643 55.2085 227.945 55.2085 221.296C55.2085 211.799 47.6104 204.201 38.1127 204.201C21.9666 205.15 21.0168 221.296 21.0168 221.296C21.0168 226.995 22.9164 232.694 26.7154 236.493C31.4643 241.242 39.0624 245.041 47.6104 245.041C58.0578 245.041 68.5053 241.242 72.3044 226.045C76.1035 213.698 69.4551 193.753 68.5053 187.105C78.9528 182.356 88.4505 168.109 89.4002 158.612C91.2998 148.164 87.5007 135.817 80.8523 127.269ZM50.4597 21.8447C51.4094 19.9452 53.309 18.9954 55.2085 18.9954C56.1583 18.9954 58.0578 19.9452 59.0076 20.8949C62.8067 22.7945 63.7565 26.5936 63.7565 32.2922C62.8067 46.5387 50.4597 63.6346 43.8113 69.3332C40.962 56.0364 42.8615 31.3424 50.4597 21.8447ZM22.9164 170.959C16.268 164.31 13.4187 154.812 14.3684 145.315C16.268 130.118 26.7154 117.771 35.2634 108.274C37.1629 106.374 39.0624 104.475 40.0122 102.575C40.962 107.324 43.8113 114.922 44.7611 118.721C33.3638 123.47 26.7154 138.666 27.6652 151.013C27.6652 156.712 29.5647 160.511 32.4141 164.31C33.3638 165.26 34.3136 166.21 35.2634 166.21C36.2131 166.21 38.1127 165.26 38.1127 164.31C39.0624 163.36 39.0624 161.461 38.1127 160.511C37.1629 159.561 37.1629 158.612 37.1629 156.712C36.2131 148.164 41.9117 141.516 48.5601 138.666C49.5099 144.365 56.1583 173.808 57.1081 180.456C44.7611 184.255 31.4643 180.456 22.9164 170.959ZM65.656 176.657C63.7565 170.009 62.8067 162.411 60.9071 153.863C59.9574 148.164 59.0076 141.516 57.1081 135.817C69.4551 135.817 73.2542 146.265 74.2039 150.064C77.0532 160.511 74.2039 170.959 65.656 176.657Z" fill="#030104"/>
</svg>
