<svg width="87" height="87" viewBox="0 0 87 87" fill="none" xmlns="http://www.w3.org/2000/svg">
<path d="M0 13C-3.13835e-07 5.82029 5.8203 2.96185e-06 13 2.64802e-06L73.5796 0C80.7593 -3.13835e-07 86.5796 5.8203 86.5796 13V73.5796C86.5796 80.7593 80.7593 86.5796 73.5796 86.5796H13C5.82029 86.5796 2.96185e-06 80.7593 2.64802e-06 73.5796L0 13Z" fill="url(#paint0_linear_456_618)"/>
<path d="M5.3162 18.3163C5.3162 11.1366 11.1365 5.31631 18.3162 5.31631L68.2632 5.31631C75.4429 5.31631 81.2632 11.1366 81.2632 18.3163V68.2633C81.2632 75.443 75.4429 81.2633 68.2632 81.2633H18.3162C11.1365 81.2633 5.31621 75.443 5.31621 68.2633L5.3162 18.3163Z" fill="white"/>
<defs>
<linearGradient id="paint0_linear_456_618" x1="48.2263" y1="68.3523" x2="47.0871" y2="94.554" gradientUnits="userSpaceOnUse">
<stop stop-color="#F1F1F1"/>
<stop offset="1" stop-color="#D3D3D3"/>
</linearGradient>
</defs>
</svg>
